# xmcd CD database file
#
# Track frame offsets:
#	150
#	22621
#	42961
#	59657
#	77072
#	98478
#	115411
#	132377
#	153399
#	168972
#
# Disc length: 2521 seconds
#
# Revision: 0
# Processed by: cddbd v1.5.2PL0 Copyright (c) Steve Scherf et al.
# Submitted via: CDex 1.51
#
DISCID=7509d70a
DTITLE=S.E.N.S. - Campanula
DYEAR=2003
DGENRE=New Age
TTITLE0=Tears On A Funeral
TTITLE1=Children Of God Warabecami
TTITLE2=Ayagu Of Miyako
TTITLE3=Child Guard Song
TTITLE4=Islanders
TTITLE5=Island Song
TTITLE6=Target Yamahana Apparatus
TTITLE7=Flowers
TTITLE8=An Inner Room
TTITLE9=The Flower Of Hand Apparatus Nunohana
EXTD=YEAR: 2003
EXTT0=
EXTT1=
EXTT2=
EXTT3=
EXTT4=
EXTT5=
EXTT6=
EXTT7=
EXTT8=
EXTT9=
PLAYORDER=
